<?xml version="1.0" standalone="no"?>
<!DOCTYPE svg PUBLIC "-//W3C//DTD SVG 20010904//EN"
 "http://www.w3.org/TR/2001/REC-SVG-20010904/DTD/svg10.dtd">
<svg version="1.0" xmlns="http://www.w3.org/2000/svg"
 width="500.000000pt" height="500.000000pt" viewBox="0 0 500.000000 500.000000"
 preserveAspectRatio="xMidYMid meet">

<g transform="translate(0.000000,500.000000) scale(0.100000,-0.100000)"
fill="#000000" stroke="none">
<path d="M2250 3851 c-197 -44 -312 -103 -431 -221 -139 -138 -199 -284 -199
-490 0 -103 25 -238 60 -333 12 -32 54 -106 92 -165 104 -157 112 -178 110
-292 -3 -125 -5 -130 -51 -130 l-38 0 -15 -102 c-8 -57 -11 -105 -7 -108 5 -4
4 -34 -2 -69 -7 -35 -8 -66 -3 -70 14 -12 127 -32 135 -24 3 5 11 35 18 67 6
33 16 63 21 66 6 4 18 53 27 109 17 112 15 121 -35 121 -23 0 -23 0 -16 108 8
132 -5 173 -103 317 -78 117 -103 171 -132 285 -32 124 -38 256 -17 360 42
208 164 365 357 459 57 28 142 59 189 71 165 39 368 36 520 -7 269 -76 478
-331 457 -559 l-6 -63 91 -113 c117 -146 147 -190 154 -227 6 -26 2 -33 -27
-50 -19 -12 -43 -21 -54 -21 -11 0 -31 -7 -44 -16 -20 -14 -22 -22 -17 -58 4
-22 14 -51 22 -63 19 -31 18 -51 -6 -65 -25 -16 -25 -35 -3 -60 14 -16 15 -22
5 -36 -44 -62 -47 -77 -24 -159 19 -70 20 -80 6 -108 -8 -18 -33 -42 -57 -56
-39 -22 -53 -24 -183 -25 -192 0 -207 -11 -235 -170 -7 -38 -18 -72 -23 -76
-6 -4 -123 -8 -259 -8 -189 0 -249 3 -252 13 -2 6 -5 67 -7 135 l-4 122 38 0
38 0 0 115 c0 70 -4 115 -10 115 -6 0 -10 28 -10 64 0 36 -3 66 -7 68 -5 2
-40 2 -79 0 l-72 -4 5 -62 c4 -41 2 -66 -6 -70 -7 -5 -11 -46 -11 -117 l0
-109 39 0 39 0 4 -131 c3 -120 5 -132 25 -148 19 -16 52 -19 247 -23 124 -4
243 -2 263 3 48 10 73 41 73 88 0 46 26 137 43 148 6 4 80 10 162 13 164 6
210 20 254 76 34 43 36 71 12 152 l-22 74 30 46 c28 44 29 47 14 73 -15 25
-14 28 7 57 l23 31 -21 34 c-11 19 -23 48 -26 64 -7 29 -5 31 38 42 24 6 58
23 75 37 58 49 40 94 -112 286 l-98 123 -2 101 c-2 97 -4 104 -44 185 -55 110
-117 186 -197 244 -152 108 -272 145 -491 151 -121 3 -166 0 -235 -15z m60
-1416 l0 -65 -65 0 -65 0 0 60 0 59 58 4 c31 2 60 4 65 5 4 1 7 -27 7 -63z
m-417 -451 c18 -4 27 -11 24 -19 -3 -7 -9 -33 -12 -59 -4 -25 -10 -48 -14 -50
-8 -5 -107 17 -116 26 -4 3 -1 32 5 63 l12 57 36 -6 c21 -4 50 -9 65 -12z"/>
<path d="M2190 2460 c0 -15 5 -20 18 -18 9 2 17 10 17 18 0 8 -8 16 -17 18
-13 2 -18 -3 -18 -18z"/>
<path d="M2255 2470 c-8 -14 3 -30 21 -30 8 0 14 9 14 20 0 21 -24 28 -35 10z"/>
<path d="M1787 1913 c-13 -12 -7 -23 13 -23 11 0 20 7 20 15 0 15 -21 21 -33
8z"/>
<path d="M1850 1896 c0 -17 27 -29 35 -16 4 6 3 15 0 20 -9 15 -35 12 -35 -4z"/>
<path d="M2341 3735 c-18 -8 -49 -15 -68 -15 -38 0 -148 -33 -204 -61 -50 -25
-219 -212 -219 -242 0 -13 -9 -32 -19 -41 -10 -9 -34 -47 -52 -84 -28 -57 -33
-79 -37 -162 -2 -56 0 -113 7 -138 15 -55 63 -109 109 -122 53 -14 56 -13 33
19 -25 34 -26 41 -7 41 9 0 12 8 8 25 -4 21 -1 25 21 25 14 0 28 -7 31 -16 9
-23 7 -74 -3 -74 -4 0 -6 -12 -3 -26 3 -19 1 -25 -7 -20 -17 11 -13 -20 8 -62
12 -23 36 -47 62 -62 39 -22 55 -25 152 -25 59 0 107 -1 107 -1 0 -1 -7 -18
-15 -37 -21 -51 -19 -67 8 -67 30 0 43 16 100 120 26 47 64 104 86 127 l39 43
73 -6 c92 -8 137 4 217 56 44 28 63 47 67 67 12 54 25 69 73 82 66 17 106 45
128 88 10 21 29 54 41 73 30 46 27 144 -6 212 -28 57 -168 195 -208 203 -15 4
-35 11 -43 16 -52 34 -110 51 -193 59 -209 19 -251 20 -286 5z m160 -70 c5
-37 3 -53 -7 -61 -11 -9 -12 -18 -4 -39 18 -46 0 -43 -46 10 -48 55 -54 75
-24 75 17 0 18 3 10 26 -13 34 -4 46 33 42 30 -3 32 -6 38 -53z m-176 -26 c4
-25 3 -45 -3 -51 -6 -6 -9 -25 -6 -42 l5 -31 -40 45 c-44 49 -48 58 -27 66 8
3 11 15 8 30 -4 21 -1 24 26 24 28 0 31 -4 37 -41z m298 20 c6 -22 -1 -49 -12
-49 -12 0 -31 39 -25 55 9 22 31 19 37 -6z m161 -21 c9 -37 7 -98 -4 -98 -7 0
-8 -13 -4 -35 3 -19 2 -35 -2 -35 -13 1 -84 92 -84 107 0 7 7 13 15 13 13 0
15 7 9 35 -6 35 -6 35 29 35 28 0 36 -5 41 -22z m-600 -40 c11 -43 7 -88 -8
-88 -12 0 -13 -6 -4 -31 17 -48 0 -48 -43 1 -41 48 -49 70 -24 70 13 0 15 7 9
35 -6 35 -6 35 29 35 28 0 36 -5 41 -22z m714 -49 c-1 -39 -2 -39 -19 -22 -21
20 -16 63 7 63 10 0 13 -12 12 -41z m-845 -36 c4 -21 2 -40 -4 -43 -5 -4 -7
-14 -3 -23 11 -29 -13 -19 -37 15 -16 21 -19 33 -11 36 7 2 10 13 6 28 -5 21
-3 24 19 24 20 0 25 -6 30 -37z m392 -55 c0 -32 -3 -58 -7 -58 -4 0 -16 13
-27 29 -28 38 -19 94 13 89 19 -3 21 -10 21 -60z m125 17 c0 -37 -13 -46 -28
-19 -12 22 -4 54 14 54 9 0 14 -12 14 -35z m108 -15 c-2 -33 -10 -37 -27 -16
-14 16 -4 46 15 46 10 0 14 -10 12 -30z m320 -15 l-2 -45 -23 22 c-27 27 -22
68 8 68 16 0 18 -7 17 -45z m-1043 5 c3 -10 3 -36 -1 -57 l-7 -37 -29 34 c-16
19 -24 36 -18 38 5 2 10 12 10 23 0 26 37 25 45 -1z m395 -29 c0 -16 3 -43 6
-60 5 -25 3 -31 -11 -31 -17 0 -17 -18 1 -64 12 -31 -15 -15 -55 33 -43 51
-52 81 -26 81 13 0 15 7 9 35 l-6 35 41 0 c39 0 41 -2 41 -29z m484 -27 c10
-26 7 -84 -4 -84 -7 0 -9 -14 -5 -37 l6 -38 -40 45 c-43 47 -51 70 -26 70 11
0 13 8 9 30 -6 28 -5 30 24 30 18 0 32 -6 36 -16z m-170 -40 c10 -25 7 -94 -4
-94 -5 0 -7 -13 -3 -30 8 -41 -6 -37 -44 14 -35 46 -41 66 -20 66 9 0 12 10 9
30 -4 28 -2 30 26 30 18 0 32 -6 36 -16z m-561 -31 c4 -22 2 -39 -3 -41 -6 -2
-7 -15 -4 -28 9 -34 -7 -29 -39 14 -21 28 -25 38 -14 40 9 2 12 11 9 27 -4 21
0 25 21 25 20 0 25 -6 30 -37z m960 18 c5 -21 -8 -49 -19 -39 -4 4 -8 19 -9
33 -4 29 20 35 28 6z m-549 -3 c3 -7 7 -32 9 -55 4 -34 2 -43 -10 -43 -8 0
-13 -6 -10 -12 27 -72 14 -76 -37 -11 -40 51 -44 63 -21 63 13 0 15 7 9 35 -6
34 -5 35 25 35 17 0 33 -6 35 -12z m426 -24 c0 -30 -3 -34 -14 -25 -7 6 -13
23 -13 36 0 15 5 25 13 25 9 0 14 -12 14 -36z m-996 17 c3 -4 8 -34 12 -65 6
-49 5 -56 -11 -56 -12 0 -15 -5 -10 -17 28 -68 11 -70 -44 -4 -46 54 -51 71
-21 71 17 0 18 3 9 27 -5 14 -8 32 -5 40 6 14 62 18 70 4z m284 -48 c2 -28 -1
-43 -8 -43 -8 0 -9 -7 -5 -17 4 -10 9 -24 12 -30 11 -27 -17 -11 -48 28 -24
30 -29 43 -20 52 6 6 11 22 11 35 0 20 4 23 28 20 24 -3 27 -7 30 -45z m-410
-78 c-2 -37 -9 -43 -26 -22 -17 20 -10 57 10 57 15 0 18 -7 16 -35z m1192 -10
c0 -37 -13 -46 -28 -19 -12 22 -4 54 14 54 9 0 14 -12 14 -35z m-935 -43 c1
-47 -8 -53 -29 -19 -19 28 -10 69 13 65 12 -2 16 -15 16 -46z m325 11 l0 -37
-20 20 c-22 22 -18 54 6 54 9 0 14 -12 14 -37z m346 22 c4 -8 3 -36 -1 -62
l-7 -48 -30 34 c-21 24 -27 36 -19 44 6 6 11 19 11 29 0 22 38 25 46 3z m152
-40 c-1 -30 -6 -55 -9 -55 -4 0 -18 14 -30 31 -16 22 -18 33 -10 38 6 4 9 15
5 24 -5 13 0 17 20 17 25 0 26 -2 24 -55z m-583 -2 c4 -24 3 -39 -4 -41 -6 -2
-8 -14 -5 -28 8 -31 -1 -30 -31 4 -25 27 -32 52 -16 52 4 0 6 11 3 25 -4 21
-1 25 21 25 21 0 26 -6 32 -37z m290 -22 c3 -10 3 -26 -1 -35 -9 -23 -31 -3
-31 29 0 29 23 34 32 6z m-805 -48 l0 -37 -20 20 c-22 22 -18 54 6 54 9 0 14
-12 14 -37z m400 -8 c0 -25 -5 -45 -10 -45 -7 0 -7 -7 0 -21 21 -38 -1 -35
-36 5 -37 43 -42 56 -19 56 11 0 14 7 9 25 -6 23 -3 25 25 25 30 0 31 -1 31
-45z m275 26 c3 -10 2 -28 -3 -41 l-9 -23 -15 22 c-18 25 -13 61 7 61 8 0 16
-8 20 -19z m-575 -21 c0 -34 -7 -38 -25 -13 -15 20 -9 43 11 43 9 0 14 -11 14
-30z m143 -27 c4 -22 2 -39 -3 -41 -6 -2 -7 -15 -4 -28 9 -34 -6 -30 -38 10
-32 40 -34 46 -14 46 9 0 12 8 8 25 -4 21 -1 25 21 25 20 0 25 -6 30 -37z
m761 -5 c4 -18 2 -34 -3 -36 -5 -2 -7 -13 -4 -25 5 -21 5 -21 -21 3 -22 21
-25 31 -20 58 9 44 39 44 48 0z m-447 -24 c3 -8 1 -29 -4 -47 l-9 -32 -17 25
c-18 28 -13 70 9 70 8 0 17 -7 21 -16z m226 -41 c3 -16 2 -32 -1 -38 -4 -5 -5
-19 -4 -30 2 -17 -1 -16 -23 9 -15 16 -24 35 -21 43 3 8 6 21 6 29 0 27 37 15
43 -13z m105 -13 c-1 -44 -7 -49 -25 -21 -14 23 -6 61 13 61 10 0 13 -12 12
-40z m-868 -1 c0 -26 -2 -29 -14 -20 -18 15 -17 51 1 51 8 0 13 -12 13 -31z
m638 -39 c-1 -27 -5 -50 -8 -50 -3 0 -12 11 -21 23 -22 30 -14 77 12 77 16 0
19 -7 17 -50z m-307 -10 c4 -20 4 -36 -2 -38 -5 -2 -6 -15 -3 -28 8 -33 -8
-30 -34 6 -23 30 -28 50 -13 50 4 0 6 12 3 26 -4 22 -2 25 19 22 18 -2 25 -12
30 -38z m114 20 c3 -5 3 -21 -1 -35 -6 -23 -8 -24 -19 -9 -7 10 -10 26 -7 36
5 20 17 24 27 8z m-225 -70 c0 -34 -7 -38 -25 -13 -15 20 -9 43 11 43 9 0 14
-11 14 -30z m325 -27 c3 -15 2 -29 -3 -31 -6 -2 -8 -13 -5 -25 4 -19 2 -19
-21 8 -14 17 -21 32 -15 35 5 4 7 14 3 23 -4 12 -1 17 14 17 13 0 22 -9 27
-27z m-127 -68 c-1 -30 -6 -55 -9 -55 -4 0 -18 14 -30 31 -16 22 -18 33 -10
38 6 4 9 15 5 24 -5 13 0 17 20 17 25 0 26 -2 24 -55z m-223 25 c3 -6 3 -20 0
-31 -6 -18 -9 -19 -21 -7 -8 8 -12 22 -8 31 7 19 20 22 29 7z m101 -48 c1 -34
-7 -40 -24 -19 -14 16 -4 59 12 54 6 -2 11 -18 12 -35z m184 -83 c0 -27 -2
-30 -15 -19 -8 7 -15 21 -15 31 0 11 7 19 15 19 10 0 15 -10 15 -31z"/>
<path d="M1344 1700 c-12 -4 -31 -20 -42 -35 -81 -103 29 -233 153 -181 36 16
38 18 22 33 -13 13 -19 15 -29 5 -21 -21 -77 -14 -103 13 -50 49 -17 135 51
135 20 0 44 -4 54 -10 13 -7 21 -6 30 5 25 30 -80 58 -136 35z"/>
<path d="M1614 1599 c-27 -62 -50 -116 -52 -121 -2 -4 7 -8 20 -8 17 0 27 8
35 30 11 29 14 30 71 30 58 0 60 -1 71 -30 7 -22 16 -30 35 -30 24 0 24 0 -28
118 -45 100 -56 117 -77 120 -23 3 -29 -7 -75 -109z m89 34 c8 -16 18 -38 21
-50 7 -22 4 -23 -38 -23 l-45 0 21 50 c11 28 22 50 24 50 2 0 10 -12 17 -27z"/>
<path d="M1870 1690 c0 -17 7 -20 40 -20 l40 0 0 -100 0 -100 25 0 25 0 0 100
0 100 35 0 c28 0 35 4 35 20 0 19 -7 20 -100 20 -93 0 -100 -1 -100 -20z"/>
<path d="M2160 1590 c0 -113 1 -120 20 -120 17 0 20 7 20 50 l0 50 65 0 65 0
0 -50 c0 -43 3 -50 20 -50 19 0 20 7 20 120 0 112 -1 120 -19 120 -17 0 -20
-8 -23 -47 l-3 -48 -60 0 -60 0 -3 48 c-3 39 -6 47 -23 47 -18 0 -19 -8 -19
-120z"/>
<path d="M2480 1590 l0 -120 90 0 c83 0 90 1 90 20 0 18 -7 20 -65 20 l-65 0
0 35 0 35 55 0 c42 0 55 3 55 15 0 12 -13 15 -55 15 -54 0 -55 0 -55 30 l0 30
65 0 c58 0 65 2 65 20 0 19 -7 20 -90 20 l-90 0 0 -120z"/>
<path d="M2760 1591 l0 -121 25 0 c22 0 25 4 25 35 0 32 2 35 30 35 23 0 35
-8 52 -35 15 -23 31 -35 46 -35 25 0 24 3 -9 51 -18 26 -18 27 6 49 34 32 33
79 -1 111 -21 20 -38 24 -100 27 l-74 4 0 -121z m134 73 c10 -4 16 -18 16 -39
0 -37 -12 -45 -66 -45 -34 0 -34 0 -34 45 0 45 0 45 34 45 19 0 41 -3 50 -6z"/>
<path d="M3060 1590 l0 -120 25 0 25 0 0 120 0 120 -25 0 -25 0 0 -120z"/>
<path d="M3220 1590 c0 -113 1 -120 20 -120 18 0 20 7 20 75 0 41 4 75 8 75 5
0 35 -34 68 -75 85 -108 94 -104 94 45 0 113 -1 120 -20 120 -18 0 -20 -7 -20
-75 0 -41 -3 -75 -7 -75 -5 1 -35 34 -67 75 -35 44 -67 75 -78 75 -16 0 -18
-11 -18 -120z"/>
<path d="M3550 1590 l0 -120 85 0 c78 0 85 2 85 20 0 18 -7 20 -65 20 l-65 0
0 35 0 35 55 0 c42 0 55 3 55 15 0 12 -13 15 -55 15 -54 0 -55 0 -55 30 l0 30
65 0 c58 0 65 2 65 20 0 18 -7 20 -85 20 l-85 0 0 -120z"/>
<path d="M3431 1289 c-99 -40 -38 -188 62 -150 22 9 27 16 26 43 l-1 33 -7
-29 c-15 -68 -121 -43 -121 29 0 11 7 31 16 44 15 20 23 23 66 19 27 -3 46 -2
41 3 -14 14 -57 18 -82 8z"/>
<path d="M1480 1210 c0 -47 4 -80 10 -80 6 0 10 29 10 68 l0 67 31 -52 c17
-29 34 -53 37 -53 4 0 21 24 37 53 l30 52 6 -70 5 -70 2 83 c1 51 -2 81 -8 77
-5 -3 -21 -28 -36 -55 -15 -28 -31 -50 -35 -50 -4 0 -22 25 -39 55 -17 30 -36
55 -41 55 -5 0 -9 -36 -9 -80z"/>
<path d="M1830 1286 c0 -2 -16 -38 -35 -80 -19 -42 -31 -76 -26 -76 5 0 12 11
15 25 6 22 11 25 56 25 44 0 51 -3 64 -27 27 -50 17 -9 -16 64 -18 40 -39 73
-45 73 -7 0 -13 -2 -13 -4z m48 -91 c-3 -4 -22 -5 -41 -3 l-34 3 19 45 20 45
21 -42 c11 -24 18 -45 15 -48z"/>
<path d="M2042 1208 c0 -46 3 -68 5 -50 4 27 8 32 31 32 18 0 36 -11 55 -32
l29 -33 -19 33 c-17 32 -17 34 0 43 20 11 23 59 5 77 -7 7 -34 12 -60 12 l-48
0 2 -82z m102 50 c18 -29 -4 -53 -53 -56 l-41 -3 0 41 0 41 41 -3 c27 -2 46
-9 53 -20z"/>
<path d="M2280 1210 c0 -47 4 -80 10 -80 6 0 10 13 10 29 0 16 7 35 16 42 15
12 21 8 55 -31 22 -25 39 -40 39 -35 -1 6 -14 26 -30 45 -17 19 -30 39 -30 44
0 5 12 24 27 40 15 17 4 9 -25 -19 l-52 -49 0 47 c0 26 -4 47 -10 47 -6 0 -10
-33 -10 -80z"/>
<path d="M2530 1210 l0 -80 55 0 c30 0 55 5 55 10 0 6 -22 10 -50 10 -49 0
-50 1 -50 29 0 28 2 30 48 34 l47 3 -47 2 c-46 2 -48 3 -48 31 0 29 2 30 53
34 l52 3 -57 2 -58 2 0 -80z"/>
<path d="M2767 1283 l32 -4 4 -77 3 -77 2 77 2 77 33 4 c17 2 1 4 -38 4 -38 0
-56 -2 -38 -4z"/>
<path d="M2983 1210 c0 -47 2 -66 4 -42 2 23 2 61 0 85 -2 23 -4 4 -4 -43z"/>
<path d="M3120 1210 c0 -47 4 -80 10 -80 6 0 10 29 10 68 l1 67 22 -26 c12
-14 39 -45 59 -70 l37 -44 1 83 c0 95 -18 112 -22 21 l-3 -62 -48 62 c-27 33
-53 61 -58 61 -5 0 -9 -36 -9 -80z"/>
</g>
</svg>
