<svg version="1.1" id="Layer_1" xmlns="http://www.w3.org/2000/svg" xmlns:xlink="http://www.w3.org/1999/xlink" x="0px" y="0px"
	 width="100%" viewBox="0 0 500 500" enable-background="new 0 0 500 500" xml:space="preserve">
<path fill="#FFFFFF" opacity="1.000000" stroke="none" 
	d="
M343.000000,501.000000 
	C228.666687,501.000000 114.833389,501.000000 1.000061,501.000000 
	C1.000041,334.333405 1.000041,167.666794 1.000020,1.000151 
	C167.666565,1.000100 334.333130,1.000100 500.999756,1.000050 
	C500.999847,167.666519 500.999847,334.333038 500.999939,500.999786 
	C448.500000,501.000000 396.000000,501.000000 343.000000,501.000000 
M235.087433,270.221741 
	C234.742416,268.463165 234.397415,266.704559 234.005585,265.001221 
	C234.005585,265.001221 234.058167,264.947144 233.966629,264.373230 
	C233.662216,264.138855 233.357819,263.904449 233.084900,262.788635 
	C233.042389,259.172821 232.999893,255.557022 232.867157,251.099426 
	C227.987091,250.809586 223.107773,250.467499 218.224518,250.395554 
	C217.997833,250.392212 217.735535,252.805756 217.538971,254.973709 
	C217.358185,258.604645 217.177399,262.235565 216.260651,266.350281 
	C216.228531,272.876434 216.196396,279.402588 216.285004,286.766724 
	C218.799957,286.899811 221.314911,287.032898 223.844635,288.082092 
	C223.899673,295.243713 223.971375,302.405243 224.003922,309.566956 
	C224.025742,314.366272 226.598129,317.518860 231.133057,317.616089 
	C246.446548,317.944427 261.774567,317.984558 277.088470,317.689911 
	C282.402557,317.587616 284.620667,314.515472 285.173340,309.321136 
	C285.505554,306.198730 286.073822,303.077362 286.832367,300.029297 
	C288.466003,293.465149 290.165619,292.205475 296.890076,292.154419 
	C303.699738,292.102692 310.561127,292.606262 317.308685,291.941437 
	C330.986938,290.593719 336.630951,281.437775 332.330261,268.491821 
	C332.015625,267.544769 331.373627,266.565796 331.457123,265.654144 
	C331.684784,263.166962 331.378265,259.934235 332.798370,258.389954 
	C336.347778,254.530090 336.798920,251.123291 333.046753,247.389816 
	C337.570496,243.804642 338.160217,240.275467 334.862549,235.872818 
	C333.488403,234.038177 333.218109,231.376770 332.338959,228.774872 
	C334.594818,228.232422 336.196198,227.921829 337.752991,227.460892 
	C347.795410,224.487488 350.081726,218.711594 344.663361,209.820999 
	C343.281281,207.553223 341.675232,205.406982 340.027557,203.318985 
	C335.798645,197.960114 331.629974,192.542831 327.162781,187.386703 
	C324.040649,183.783112 322.117218,180.266632 323.698730,175.253784 
	C324.353180,173.179398 323.860474,170.608795 323.435699,168.349167 
	C319.502930,147.429855 307.856995,131.774277 288.821930,122.900581 
	C255.951508,107.577133 223.404160,110.046127 192.615555,128.912247 
	C175.683182,139.287766 165.814957,155.333679 163.254639,175.002060 
	C160.299820,197.700974 164.398697,219.247406 178.438904,237.863495 
	C187.764389,250.228287 191.861115,263.283081 187.364487,278.575409 
	C182.380234,280.235901 181.852386,280.773926 179.893845,286.367645 
	C179.841507,286.517059 179.633743,286.635803 179.627884,286.774323 
	C179.429123,291.474426 179.246063,296.175171 179.045258,301.595612 
	C178.240219,305.638123 177.435181,309.680634 176.514420,314.304199 
	C178.824509,314.717316 181.538483,314.939575 184.082947,315.716797 
	C188.339386,317.016937 191.983765,315.204803 193.086853,311.083618 
	C193.909897,308.008698 195.011505,305.008362 196.128571,301.138031 
	C196.995697,295.670624 197.811050,290.194305 198.754333,284.740051 
	C199.156342,282.415558 199.056931,280.800598 196.020767,280.897522 
	C194.694443,280.939850 193.350250,280.421967 191.982498,280.152252 
	C192.063675,278.890625 192.002899,277.870850 192.210052,276.908813 
	C195.563477,261.336243 191.462494,247.779007 181.748764,235.384033 
	C170.839508,221.463547 166.845612,205.051590 166.628616,187.739349 
	C166.288406,160.597855 178.400589,140.552368 202.331390,127.776413 
	C218.040543,119.389755 235.024002,117.043808 252.583527,117.762894 
	C270.387085,118.491974 286.836975,123.262802 300.203735,135.487091 
	C313.097443,147.278778 321.709686,161.187851 319.085907,179.855743 
	C318.790283,181.958984 320.068756,184.713943 321.443878,186.546387 
	C327.136841,194.132629 333.330658,201.344086 338.994904,208.950546 
	C345.973633,218.322266 344.797089,221.237427 333.502686,224.027908 
	C328.957916,225.150772 327.556641,227.430771 328.996857,232.066635 
	C329.966949,235.189301 331.388763,238.171616 332.819763,241.744095 
	C328.700073,244.594650 325.696869,248.187195 332.082550,252.752945 
	C325.621094,258.163544 326.214691,264.036530 328.696838,270.751160 
	C332.080872,279.905518 327.620575,286.505768 317.453613,287.826202 
	C312.550201,288.463043 307.497009,288.387878 302.541931,288.104675 
	C285.787903,287.147064 283.880646,290.284607 281.067505,307.029755 
	C281.039978,307.193512 281.005554,307.365082 281.025818,307.526581 
	C281.619781,312.254333 278.895752,313.841064 274.814880,313.824371 
	C260.829407,313.767151 246.844467,313.588989 232.859009,313.517731 
	C229.498779,313.500641 228.099518,311.998383 228.114105,308.630402 
	C228.145126,301.472290 227.966644,294.313293 228.789749,287.017059 
	C230.700684,287.017059 232.611603,287.017059 234.916626,287.017059 
	C234.916626,281.385529 234.916626,276.213776 235.087433,270.221741 
M192.076691,216.837952 
	C193.590363,225.412308 198.902725,230.577682 207.246902,231.714905 
	C213.314606,232.541855 219.585709,231.876511 226.190964,231.876511 
	C225.356613,234.168518 224.494537,235.685135 224.309158,237.280380 
	C224.115479,238.947098 224.572998,240.689468 224.745850,242.398758 
	C226.704605,241.922104 228.730011,241.615967 230.590759,240.888580 
	C231.383636,240.578659 231.914307,239.437683 232.424789,238.590393 
	C237.603592,229.994553 242.753571,221.381363 247.870529,212.841660 
	C260.793304,215.753601 272.028534,214.590927 281.560333,206.095825 
	C283.045563,204.772186 284.414062,202.866745 284.915802,200.984833 
	C285.941986,197.135849 287.690033,194.940811 291.782288,193.511963 
	C296.292450,191.937180 301.726105,189.583710 304.021057,185.875793 
	C307.628052,180.048172 312.450195,174.524185 311.292908,166.000214 
	C310.314819,158.796005 308.203278,152.751266 303.229950,148.077454 
	C297.307404,142.511597 291.259338,137.399414 283.692505,133.318298 
	C273.332397,127.730675 262.679626,127.761696 252.054138,126.316437 
	C240.083160,124.688148 228.543640,128.338120 216.887619,130.910248 
	C202.395889,134.108170 195.791443,146.091415 186.964401,155.654495 
	C185.418503,157.329300 185.705231,160.650650 184.211960,162.426483 
	C175.488861,172.800262 172.963989,184.772049 174.693604,197.818054 
	C176.253250,209.582138 180.527740,213.704910 191.983047,215.729492 
	C191.983047,215.729492 192.036819,216.075195 192.076691,216.837952 
M328.008820,341.713531 
	C328.125244,341.435303 328.211884,341.138031 328.372040,340.887756 
	C328.440735,340.780365 328.763000,340.685242 328.800079,340.728912 
	C331.815979,344.281097 334.627930,348.033142 337.898132,351.330933 
	C339.424194,352.869873 341.834961,353.531525 344.464294,354.917389 
	C344.464294,345.569153 344.464294,337.834808 344.464294,329.949280 
	C342.536621,329.949280 340.945648,329.949280 338.801422,329.949280 
	C338.801422,334.391510 338.801422,338.578308 338.801422,342.785278 
	C332.314209,339.502258 331.627136,329.486816 322.557434,329.763489 
	C322.557434,338.256409 322.557434,346.004791 322.557434,354.052185 
	C324.514282,353.951111 326.094849,353.869446 327.997955,353.771149 
	C327.997955,349.768951 327.997955,346.128693 328.008820,341.713531 
M222.026108,334.617065 
	C221.944397,333.040863 221.862671,331.464691 221.766129,329.602539 
	C219.679596,329.747681 218.088562,329.858337 216.473526,329.970673 
	C216.473526,338.111511 216.473526,345.849884 216.473526,353.640656 
	C218.444534,353.640656 220.137161,353.640656 222.182861,353.640656 
	C222.182861,350.332489 222.182861,347.403931 222.182861,344.374573 
	C225.926132,344.374573 229.301727,344.374573 233.180771,344.374573 
	C233.180771,347.753296 233.180771,350.814545 233.180771,354.115692 
	C235.293167,353.956390 236.874649,353.837128 238.517929,353.713226 
	C238.517929,345.619293 238.517929,337.902710 238.517929,330.064423 
	C236.537552,330.064423 234.843445,330.064423 232.787689,330.064423 
	C232.787689,333.215088 232.787689,335.980377 232.787689,339.148346 
	C229.977280,339.148346 227.505096,338.980438 225.065582,339.191162 
	C222.070618,339.449921 221.822815,337.748291 222.026108,334.617065 
M283.593323,347.248322 
	C285.590637,348.322174 288.278564,348.914734 289.435333,350.574463 
	C291.561890,353.625641 293.821136,354.796112 297.650909,353.537445 
	C296.094482,351.151978 294.582672,348.834869 293.016968,346.435181 
	C296.293640,343.858368 299.059174,340.705688 297.256317,336.638550 
	C296.122223,334.080170 293.478271,331.023254 291.007721,330.479401 
	C286.503265,329.487854 281.624237,330.197601 276.899719,330.197601 
	C276.899719,338.289886 276.899719,346.006592 276.899719,354.034698 
	C278.844666,353.932678 280.421906,353.849915 281.748138,353.780334 
	C282.160126,351.380310 282.491211,349.451630 283.593323,347.248322 
M361.033539,335.452209 
	C364.028076,335.071838 367.020142,334.409760 370.017822,334.383209 
	C373.678864,334.350708 374.281433,332.943939 372.987579,329.908813 
	C366.955383,329.908813 361.188904,329.908813 355.382751,329.908813 
	C355.382751,338.022675 355.382751,345.890686 355.382751,353.808563 
	C361.667297,353.808563 367.595917,353.808563 373.952759,353.808563 
	C373.819000,352.225250 373.706848,350.897705 373.561707,349.179626 
	C369.186554,349.179626 365.262146,349.179626 361.273865,349.179626 
	C361.273865,347.225006 361.273865,345.711060 361.273865,343.881531 
	C364.944092,343.881531 368.224396,343.881531 371.955658,343.881531 
	C371.836212,342.207092 371.742371,340.891205 371.631989,339.343536 
	C368.663544,339.343536 366.133911,339.634186 363.729919,339.211060 
	C362.657471,339.022278 361.837646,337.398132 361.033539,335.452209 
M259.451111,354.023499 
	C262.075073,354.023499 264.699005,354.023499 267.544769,354.023499 
	C267.544769,352.452209 267.696259,350.421387 267.522552,350.393188 
	C263.396790,349.723267 259.236053,349.268585 254.876678,348.750275 
	C254.876678,347.275085 254.876678,345.872894 254.876678,343.972290 
	C258.526245,343.972290 261.947571,343.972290 265.252014,343.972290 
	C266.997345,339.209961 264.187286,339.587738 261.369659,339.249878 
	C259.056671,338.972504 254.735321,341.453857 254.861282,336.763977 
	C254.980301,332.331879 259.196259,334.851471 261.571686,334.370789 
	C263.287689,334.023529 265.130585,334.303070 267.198486,334.303070 
	C267.101532,332.514343 267.033783,331.264984 266.959503,329.894592 
	C260.881256,329.894592 255.114822,329.894592 249.236298,329.894592 
	C249.236298,337.984863 249.236298,345.853424 249.236298,354.023499 
	C252.538681,354.023499 255.509308,354.023499 259.451111,354.023499 
M181.656052,349.888214 
	C179.008957,343.966034 176.427078,338.013458 173.687210,332.134521 
	C172.321808,329.204742 167.747574,328.362976 166.495255,330.942810 
	C162.913559,338.321198 159.775467,345.914886 156.462906,353.423920 
	C156.972015,353.905212 157.481125,354.386475 157.990234,354.867767 
	C159.752869,353.534698 161.847244,352.470947 163.199814,350.804962 
	C165.191040,348.352325 174.826843,347.791016 175.903793,350.668091 
	C177.368134,354.580139 179.759079,354.416931 183.087479,353.558685 
	C182.662537,352.441650 182.314529,351.526855 181.656052,349.888214 
M140.621750,349.401947 
	C134.871902,347.932068 132.564194,344.388489 134.067215,339.337189 
	C135.366791,334.969604 140.343613,332.852020 145.018799,335.334137 
	C147.968903,336.900360 149.147079,335.822601 150.455261,333.644836 
	C145.973099,328.736908 139.479172,327.798706 133.797699,331.172699 
	C128.843979,334.114502 126.590385,340.280548 128.412918,345.905975 
	C130.199677,351.420959 135.892075,355.208923 142.100800,354.326996 
	C145.128403,353.896881 147.984695,352.260834 151.739975,350.865448 
	C149.652313,348.929169 148.604919,347.957764 147.936172,347.337494 
	C145.458893,348.146942 143.455612,348.801483 140.621750,349.401947 
M206.804993,329.696869 
	C200.532761,329.696869 194.260529,329.696869 187.978043,329.696869 
	C186.262009,337.360443 193.074753,332.672852 195.345795,336.016998 
	C195.345795,341.284210 195.345795,347.509552 195.345795,353.739685 
	C197.494720,353.739685 199.075287,353.739685 201.108429,353.739685 
	C201.108429,347.239716 201.108429,341.003754 201.108429,334.656952 
	C203.845322,334.463562 206.135773,334.301697 209.238647,334.082458 
	C208.633881,332.443787 208.139877,331.105225 206.804993,329.696869 
M162.724289,378.974915 
	C162.835342,378.851257 162.932236,378.709167 163.061737,378.609497 
	C163.175476,378.521973 163.325821,378.481995 163.460007,378.421021 
	C163.746933,380.402344 163.963974,382.397278 164.345840,384.360138 
	C164.592178,385.626282 165.080185,386.845428 165.459885,388.085632 
	C165.790878,387.976379 166.121887,387.867126 166.452881,387.757874 
	C166.452881,382.193176 166.452881,376.628448 166.452881,371.063751 
	C166.070023,370.925354 165.687164,370.786957 165.304306,370.648560 
	C162.872437,374.424561 160.440567,378.200531 157.805206,382.292480 
	C155.130951,378.116425 152.700363,374.320892 150.269791,370.525360 
	C149.953873,370.793701 149.637955,371.062042 149.322037,371.330353 
	C149.322037,376.871521 149.322037,382.412689 149.322037,387.953827 
	C149.799942,387.968414 150.277847,387.983032 150.755753,387.997620 
	C150.955460,384.609589 151.155151,381.221588 151.405518,376.974060 
	C153.763931,380.451721 155.699890,383.306396 158.000549,386.698883 
	C159.729599,383.814056 160.994766,381.703217 162.724289,378.974915 
M231.324982,384.518463 
	C232.229462,383.294373 233.133926,382.070251 234.010849,380.883453 
	C237.025223,383.686035 239.543304,386.027191 242.061371,388.368347 
	C242.369308,388.003418 242.677246,387.638489 242.985168,387.273560 
	C240.746902,384.411224 238.508636,381.548889 236.205719,378.603851 
	C238.452652,376.139648 240.537994,373.852692 242.623322,371.565735 
	C242.263947,371.148956 241.904572,370.732208 241.545197,370.315430 
	C238.415771,373.237915 235.286331,376.160400 231.784515,379.430603 
	C231.320724,375.954041 230.984344,373.432587 230.647964,370.911102 
	C230.204163,370.970734 229.760361,371.030365 229.316559,371.089996 
	C229.316559,376.705780 229.316559,382.321533 229.316559,387.937317 
	C229.698120,387.992920 230.079681,388.048553 230.461243,388.104156 
	C230.733795,387.170746 231.006332,386.237335 231.324982,384.518463 
M211.959625,371.010742 
	C209.381577,371.010742 206.803528,371.010742 204.488556,371.010742 
	C204.488556,377.094299 204.488556,382.523132 204.488556,387.951996 
	C204.908829,388.019653 205.329117,388.087311 205.749390,388.154938 
	C206.278473,386.512329 206.807571,384.869720 207.772430,381.874176 
	C211.219849,384.157806 214.201233,386.132690 217.182617,388.107605 
	C217.325668,387.903625 217.468719,387.699646 217.611755,387.495667 
	C216.678009,385.989960 215.744247,384.484222 214.829254,383.008728 
	C219.433395,376.814056 218.933762,373.966705 211.959625,371.010742 
M312.844696,375.789001 
	C312.844696,379.839203 312.844696,383.889374 312.844696,387.939575 
	C313.593811,387.916443 314.342926,387.893311 315.092041,387.870178 
	C315.092041,384.285431 315.092041,380.700684 315.092041,375.766968 
	C319.472229,380.785217 322.806610,384.605316 326.663818,389.024414 
	C326.663818,382.156433 326.663818,376.626190 326.663818,371.095978 
	C326.131744,371.092896 325.599701,371.089813 325.067627,371.086731 
	C325.067627,374.838379 325.067627,378.589996 325.067627,383.593292 
	C320.852966,378.488007 317.584717,374.529144 314.316467,370.570282 
	C313.923492,370.767578 313.530548,370.964874 313.137604,371.162170 
	C313.040039,372.402405 312.942474,373.642670 312.844696,375.789001 
M352.522125,374.610901 
	C351.536743,373.414856 350.738678,371.462616 349.531067,371.163422 
	C345.784088,370.235046 341.663422,370.761688 339.944519,374.472137 
	C338.715790,377.124481 338.406006,380.980103 339.378906,383.691376 
	C340.813629,387.689362 344.844269,388.657806 349.005676,388.069427 
	C354.118103,387.346558 355.364838,384.208923 352.314331,379.089081 
	C351.893616,379.681366 351.316864,380.136627 351.239014,380.665314 
	C350.919098,382.838196 351.707520,386.089111 348.214355,385.712891 
	C345.880188,385.461487 342.705841,384.145935 341.763062,382.338654 
	C340.823761,380.538086 341.410004,376.928528 342.736694,375.183746 
	C345.035889,372.160034 348.581482,372.650604 352.522125,374.610901 
M306.708282,338.531555 
	C306.708282,343.612518 306.708282,348.693451 306.708282,353.720367 
	C308.896027,353.720367 310.317657,353.720367 311.873413,353.720367 
	C311.873413,345.719513 311.873413,337.989838 311.873413,329.859344 
	C310.037323,329.946777 308.503815,330.019775 306.708008,330.105255 
	C306.708008,332.917511 306.708008,335.231598 306.708282,338.531555 
M260.343323,388.050171 
	C262.111298,387.900513 263.879303,387.750854 265.647308,387.601196 
	C265.629517,387.104126 265.611725,386.607056 265.593964,386.109955 
	C262.433685,385.967163 259.273407,385.824341 255.835770,385.669006 
	C256.001495,383.737793 256.123505,382.315613 256.241486,380.940796 
	C259.101776,380.639374 261.597931,380.376343 264.094116,380.113312 
	C264.118988,379.579041 264.143890,379.044739 264.168793,378.510437 
	C261.556641,378.308960 258.944489,378.107483 256.250885,377.899719 
	C256.250885,376.234558 256.250885,374.864044 256.250885,373.458435 
	C259.460510,373.179901 262.355499,372.928711 265.250519,372.677490 
	C265.208038,372.250092 265.165558,371.822662 265.123077,371.395264 
	C261.212799,371.395264 257.302490,371.395264 253.358353,371.395264 
	C253.358353,377.012054 253.358353,382.260681 253.358353,388.050171 
	C255.544266,388.050171 257.485565,388.050171 260.343323,388.050171 
M176.978973,387.425232 
	C177.697235,387.442444 178.972153,387.661194 179.049820,387.446533 
	C180.124954,384.476440 182.176682,383.846832 185.199707,383.800385 
	C188.407257,383.751099 190.535812,384.517181 191.770660,387.561066 
	C191.893692,387.864380 193.126999,387.717316 194.257217,387.814880 
	C191.953461,382.685944 189.910202,377.996216 187.718842,373.376709 
	C187.278519,372.448517 186.275299,371.787292 185.531601,371.002991 
	C184.661652,371.845306 183.474289,372.533356 182.976974,373.556763 
	C180.883377,377.865204 178.995773,382.273743 176.978973,387.425232 
M274.572723,371.337799 
	C276.240479,372.322510 277.908264,373.307220 280.375763,374.764099 
	C280.375763,378.628204 280.375763,383.264496 280.375763,387.900757 
	C281.028717,387.942017 281.681671,387.983276 282.334595,388.024536 
	C282.589081,383.282867 282.843567,378.541229 283.096527,373.828064 
	C285.043976,373.353546 286.762238,372.934906 288.480530,372.516266 
	C288.422852,372.019653 288.365173,371.523071 288.307495,371.026489 
	C283.987091,371.026489 279.666656,371.026489 274.572723,371.337799 
M300.143951,387.658508 
	C301.059448,382.043152 300.932495,376.515259 299.100952,371.078430 
	C297.956024,374.509338 297.792572,377.906738 298.013550,381.278931 
	C298.160553,383.522247 298.856476,385.729584 300.143951,387.658508 
z"/>
<path fill="#F1692C" opacity="1.000000" stroke="none" 
	d="
M192.041916,215.384613 
	C180.527740,213.704910 176.253250,209.582138 174.693604,197.818054 
	C172.963989,184.772049 175.488861,172.800262 184.211960,162.426483 
	C185.705231,160.650650 185.418503,157.329300 186.964401,155.654495 
	C195.791443,146.091415 202.395889,134.108170 216.887619,130.910248 
	C228.543640,128.338120 240.083160,124.688148 252.054138,126.316437 
	C262.679626,127.761696 273.332397,127.730675 283.692505,133.318298 
	C291.259338,137.399414 297.307404,142.511597 303.229950,148.077454 
	C308.203278,152.751266 310.314819,158.796005 311.292908,166.000214 
	C312.450195,174.524185 307.628052,180.048172 304.021057,185.875793 
	C301.726105,189.583710 296.292450,191.937180 291.782288,193.511963 
	C287.690033,194.940811 285.941986,197.135849 284.915802,200.984833 
	C284.414062,202.866745 283.045563,204.772186 281.560333,206.095825 
	C272.028534,214.590927 260.793304,215.753601 247.870529,212.841660 
	C242.753571,221.381363 237.603592,229.994553 232.424789,238.590393 
	C231.914307,239.437683 231.383636,240.578659 230.590759,240.888580 
	C228.730011,241.615967 226.704605,241.922104 224.745850,242.398773 
	C224.572998,240.689468 224.115479,238.947098 224.309158,237.280380 
	C224.494537,235.685135 225.356613,234.168518 226.190964,231.876511 
	C219.585709,231.876511 213.314606,232.541855 207.246902,231.714905 
	C198.902725,230.577682 193.590363,225.412308 192.385742,216.329834 
	C195.854507,212.787262 195.796799,208.921082 194.866669,205.193405 
	C194.617950,204.196625 192.219086,203.736359 190.988052,203.120209 
	C190.315475,206.159210 189.881287,208.121033 189.446732,210.084579 
	C190.240707,211.706085 191.141312,213.545349 192.041916,215.384613 
M258.037384,210.298477 
	C258.148956,210.264496 258.260559,210.230530 258.372131,210.196564 
	C258.234314,210.139328 258.096497,210.082092 258.049927,209.201630 
	C258.278412,206.301010 261.048218,202.565567 255.563385,200.674484 
	C255.315308,204.665298 253.233505,208.335312 258.037384,210.298477 
M234.961411,174.192978 
	C234.405243,172.309525 233.849060,170.426056 233.363708,168.782471 
	C238.402313,166.052551 235.839096,161.747650 235.182068,158.500137 
	C234.907715,157.144089 231.214371,156.479752 229.075562,155.500900 
	C228.795380,155.955109 228.515198,156.409302 228.235016,156.863495 
	C228.720291,159.029327 229.205566,161.195160 229.685822,163.338623 
	C228.338638,163.752579 227.204422,164.101105 225.196762,164.718018 
	C228.718750,168.490463 231.694672,171.678009 234.961411,174.192978 
M193.179520,185.041016 
	C193.445374,185.821503 193.711212,186.602005 193.977066,187.382492 
	C194.885147,183.966904 193.898438,180.709610 195.075378,179.406601 
	C198.247864,175.894226 195.431519,172.604172 195.404480,169.343414 
	C195.398865,168.664749 191.487091,168.018448 188.451721,167.067978 
	C189.118408,170.436829 189.516418,172.447998 189.903503,174.403992 
	C188.586792,174.990463 187.470184,175.487808 186.016403,176.135330 
	C188.444672,179.141571 190.613785,181.826950 193.179520,185.041016 
M271.733490,145.797913 
	C273.781555,148.292923 275.829651,150.787949 278.501434,154.042816 
	C278.750488,150.347321 275.942657,147.877274 279.438904,145.077240 
	C280.715393,144.054932 279.104340,138.854355 278.013062,135.849640 
	C277.739197,135.095612 274.384552,135.460464 272.062683,135.281601 
	C272.546326,138.793884 274.909607,141.853287 270.566833,143.072357 
	C270.805145,143.795670 271.043488,144.518967 271.733490,145.797913 
M250.985489,136.469193 
	C250.361420,128.942627 250.139206,128.730576 243.837372,130.130508 
	C244.163879,131.979767 244.493607,133.847305 244.810928,135.644562 
	C243.706863,136.328308 242.719955,136.939499 241.382874,137.767563 
	C244.216492,141.125488 246.716415,144.087997 248.785721,146.540207 
	C249.586884,143.244995 250.305939,140.287476 250.985489,136.469193 
M211.406281,149.026169 
	C213.562073,151.676163 215.717850,154.326157 217.873642,156.976166 
	C218.129074,156.820419 218.384491,156.664673 218.639923,156.508942 
	C218.124924,154.643860 217.609924,152.778778 217.097473,150.914185 
	C222.680344,147.589310 217.920319,143.245209 218.912216,139.220551 
	C216.297440,139.220551 214.364075,139.220551 212.120331,139.220551 
	C212.632614,141.521851 213.081116,143.536575 213.529617,145.551300 
	C213.133163,145.412109 212.736710,145.272919 212.340240,145.133743 
	C211.881973,146.243011 211.423706,147.352280 211.406281,149.026169 
M251.965820,167.432739 
	C250.131149,167.259079 248.296494,167.085419 247.327225,166.993683 
	C246.590744,170.047211 246.045471,172.307968 245.251633,175.599274 
	C246.680450,177.336334 248.953171,180.099365 251.225891,182.862381 
	C251.632782,180.714279 250.529724,178.172958 251.114105,177.695053 
	C254.693939,174.767456 252.390091,171.387833 251.965820,167.432739 
M260.039124,171.017166 
	C261.574768,173.781738 263.110413,176.546310 264.646057,179.310898 
	C266.333618,175.591019 267.320404,172.661011 267.465363,169.689926 
	C267.668732,165.521454 266.060608,162.990784 261.905670,164.782745 
	C261.439362,167.175140 261.084747,168.994461 260.039124,171.017166 
M278.468170,162.935379 
	C278.018066,164.613297 277.567993,166.291199 276.917633,168.715729 
	C278.325378,170.381622 280.293457,172.710526 282.261505,175.039413 
	C282.818817,173.221344 282.171173,170.713867 282.463806,170.598877 
	C287.260590,168.713654 283.736176,165.232239 284.000092,162.596497 
	C284.073730,161.861435 282.466217,160.247101 281.724365,160.302414 
	C280.511200,160.392883 279.375458,161.521667 278.468170,162.935379 
M226.496155,138.937027 
	C228.081512,141.984131 229.666855,145.031235 231.252197,148.078339 
	C231.529419,147.881622 231.806641,147.684906 232.083862,147.488174 
	C232.439468,142.780121 232.795090,138.072067 233.184402,132.917847 
	C230.492798,133.061783 228.913101,133.146255 227.646057,133.214005 
	C227.494476,135.360001 227.375366,137.046448 226.496155,138.937027 
M223.268845,170.327972 
	C221.814316,169.458466 220.359802,168.588943 218.817474,167.666946 
	C218.256210,170.896530 217.897614,172.959915 217.337814,176.181030 
	C218.402390,177.475098 220.263504,179.737427 222.451477,182.397079 
	C222.835526,178.042877 223.140320,174.587021 223.268845,170.327972 
M215.382050,191.447708 
	C215.201050,193.265945 215.020035,195.084167 214.743866,197.858337 
	C215.814407,199.143585 217.589920,201.275192 219.198990,203.206970 
	C219.792160,201.179611 220.355804,199.260025 220.915390,197.339264 
	C222.217163,192.870972 219.885483,189.959610 215.382050,191.447708 
M209.900513,176.455048 
	C210.262039,174.936844 210.601532,173.412994 210.989227,171.901505 
	C212.149536,167.377716 210.623215,165.199585 206.829300,165.631073 
	C205.553696,169.719101 205.310226,173.592438 209.900513,176.455048 
M204.634827,194.440781 
	C203.354324,194.071793 202.073837,193.702805 201.028824,193.401688 
	C200.418198,195.870422 199.966751,197.695618 199.408173,199.953934 
	C200.170120,200.939224 201.266708,202.357269 203.377365,205.086609 
	C204.000336,200.883881 204.421677,198.041473 204.634827,194.440781 
M243.670242,159.043106 
	C243.813721,159.125305 243.948776,159.235947 244.103058,159.281662 
	C244.255966,159.326935 244.561584,159.346725 244.572723,159.309540 
	C244.961838,158.011505 245.651428,156.697739 245.621109,155.402069 
	C245.560135,152.795151 246.732849,149.041718 241.603439,149.600647 
	C241.863419,152.835587 239.160172,156.341614 243.670242,159.043106 
M274.009735,190.928406 
	C274.411835,189.928879 274.779114,188.913605 275.222412,187.932693 
	C276.711456,184.637650 274.919586,181.690567 271.480652,181.811722 
	C270.458130,185.480835 269.500122,189.135086 274.009735,190.928406 
M232.097580,190.062637 
	C231.565521,187.562836 233.803513,183.077225 228.480240,184.079208 
	C227.717682,186.196198 227.100998,187.908157 226.426682,189.780151 
	C227.745453,191.381454 229.146835,193.083084 230.612183,194.862396 
	C231.061844,193.199799 231.384232,192.007843 232.097580,190.062637 
M211.813263,209.512772 
	C209.630356,212.455261 211.200943,214.555191 214.206207,217.266510 
	C214.818008,213.995819 215.462158,211.290924 215.709503,208.550232 
	C215.754166,208.055511 214.217148,207.114243 213.314087,206.966095 
	C212.863495,206.892197 212.195343,208.144714 211.813263,209.512772 
M201.843643,148.177460 
	C200.129898,151.801834 200.934616,154.640701 204.842133,156.828873 
	C205.254486,154.454224 205.841507,152.213318 205.988495,149.943893 
	C206.179611,146.992844 204.691254,146.092484 201.843643,148.177460 
M223.978546,227.880844 
	C224.035706,224.804108 227.357208,220.790192 221.251358,218.737900 
	C221.006088,222.785950 218.426483,226.670761 223.978546,227.880844 
M287.720734,181.521927 
	C285.884460,185.093674 285.322449,188.383987 289.781586,190.778641 
	C289.491577,187.493393 293.606812,183.814499 287.720734,181.521927 
M195.478867,154.290283 
	C194.403687,154.570724 192.383194,154.912735 192.396851,155.122253 
	C192.568619,157.759460 190.219849,161.243668 195.228485,162.795212 
	C195.455460,160.135818 195.674911,157.564606 195.478867,154.290283 
M280.163696,201.301056 
	C279.939911,199.174118 279.716156,197.047195 279.492371,194.920258 
	C278.544678,196.184616 276.769714,197.504913 276.850464,198.699753 
	C276.961273,200.338852 278.479370,201.882828 279.394409,203.467560 
	C279.627899,202.996460 279.861389,202.525360 280.163696,201.301056 
z"/>
<path fill="#EB6226" opacity="1.000000" stroke="none" 
	d="
M179.060730,300.875854 
	C179.246063,296.175171 179.429123,291.474426 179.627884,286.774323 
	C179.633743,286.635803 179.841507,286.517059 179.893845,286.367645 
	C181.852386,280.773926 182.380234,280.235901 187.364487,278.575409 
	C191.861115,263.283081 187.764389,250.228287 178.438904,237.863495 
	C164.398697,219.247406 160.299820,197.700974 163.254639,175.002060 
	C165.814957,155.333679 175.683182,139.287766 192.615555,128.912247 
	C223.404160,110.046127 255.951508,107.577133 288.821930,122.900581 
	C307.856995,131.774277 319.502930,147.429855 323.435699,168.349167 
	C323.860474,170.608795 324.353180,173.179398 323.698730,175.253784 
	C322.117218,180.266632 324.040649,183.783112 327.162781,187.386703 
	C331.629974,192.542831 335.798645,197.960114 340.027557,203.318985 
	C341.675232,205.406982 343.281281,207.553223 344.663361,209.820999 
	C350.081726,218.711594 347.795410,224.487488 337.752991,227.460892 
	C336.196198,227.921829 334.594818,228.232422 332.338959,228.774872 
	C333.218109,231.376770 333.488403,234.038177 334.862549,235.872818 
	C338.160217,240.275467 337.570496,243.804642 333.046753,247.389816 
	C336.798920,251.123291 336.347778,254.530090 332.798370,258.389954 
	C331.378265,259.934235 331.684784,263.166962 331.457123,265.654144 
	C331.373627,266.565796 332.015625,267.544769 332.330261,268.491821 
	C336.630951,281.437775 330.986938,290.593719 317.308685,291.941437 
	C310.561127,292.606262 303.699738,292.102692 296.890076,292.154419 
	C290.165619,292.205475 288.466003,293.465149 286.832367,300.029297 
	C286.073822,303.077362 285.505554,306.198730 285.173340,309.321136 
	C284.620667,314.515472 282.402557,317.587616 277.088470,317.689911 
	C261.774567,317.984558 246.446548,317.944427 231.133057,317.616089 
	C226.598129,317.518860 224.025742,314.366272 224.003922,309.566956 
	C223.971375,302.405243 223.899673,295.243713 224.240112,287.554352 
	C225.715088,287.069305 226.794571,287.111969 227.874054,287.154663 
	C227.966644,294.313293 228.145126,301.472290 228.114105,308.630402 
	C228.099518,311.998383 229.498779,313.500641 232.859009,313.517731 
	C246.844467,313.588989 260.829407,313.767151 274.814880,313.824371 
	C278.895752,313.841064 281.619781,312.254333 281.025818,307.526581 
	C281.005554,307.365082 281.039978,307.193512 281.067505,307.029755 
	C283.880646,290.284607 285.787903,287.147064 302.541931,288.104675 
	C307.497009,288.387878 312.550201,288.463043 317.453613,287.826202 
	C327.620575,286.505768 332.080872,279.905518 328.696838,270.751160 
	C326.214691,264.036530 325.621094,258.163544 332.082550,252.752945 
	C325.696869,248.187195 328.700073,244.594650 332.819763,241.744095 
	C331.388763,238.171616 329.966949,235.189301 328.996857,232.066635 
	C327.556641,227.430771 328.957916,225.150772 333.502686,224.027908 
	C344.797089,221.237427 345.973633,218.322266 338.994904,208.950546 
	C333.330658,201.344086 327.136841,194.132629 321.443878,186.546387 
	C320.068756,184.713943 318.790283,181.958984 319.085907,179.855743 
	C321.709686,161.187851 313.097443,147.278778 300.203735,135.487091 
	C286.836975,123.262802 270.387085,118.491974 252.583527,117.762894 
	C235.024002,117.043808 218.040543,119.389755 202.331390,127.776413 
	C178.400589,140.552368 166.288406,160.597855 166.628616,187.739349 
	C166.845612,205.051590 170.839508,221.463547 181.748764,235.384033 
	C191.462494,247.779007 195.563477,261.336243 192.210052,276.908813 
	C192.002899,277.870850 192.063675,278.890625 191.982498,280.152252 
	C193.350250,280.421967 194.694443,280.939850 196.020767,280.897522 
	C199.056931,280.800598 199.156342,282.415558 198.754333,284.740051 
	C197.811050,290.194305 196.995697,295.670624 195.718979,301.747192 
	C193.736389,302.437714 192.138367,302.735931 190.595337,302.557800 
	C186.737167,302.112335 182.903946,301.450714 179.060730,300.875854 
z"/>
<path fill="#F26E34" opacity="1.000000" stroke="none" 
	d="
M328.003387,342.100983 
	C327.997955,346.128693 327.997955,349.768951 327.997955,353.771149 
	C326.094849,353.869446 324.514282,353.951111 322.557434,354.052185 
	C322.557434,346.004791 322.557434,338.256409 322.557434,329.763489 
	C331.627136,329.486816 332.314209,339.502258 338.801422,342.785278 
	C338.801422,338.578308 338.801422,334.391510 338.801422,329.949280 
	C340.945648,329.949280 342.536621,329.949280 344.464294,329.949280 
	C344.464294,337.834808 344.464294,345.569153 344.464294,354.917389 
	C341.834961,353.531525 339.424194,352.869873 337.898132,351.330933 
	C334.627930,348.033142 331.815979,344.281097 328.800079,340.728912 
	C328.763000,340.685242 328.440735,340.780365 328.372040,340.887756 
	C328.211884,341.138031 328.125244,341.435303 328.003387,342.100983 
z"/>
<path fill="#ED6326" opacity="1.000000" stroke="none" 
	d="
M216.164276,285.928741 
	C216.196396,279.402588 216.228531,272.876434 217.088104,266.175140 
	C223.296432,265.649048 228.677307,265.298096 234.058167,264.947144 
	C234.058167,264.947144 234.005585,265.001221 233.911148,265.381195 
	C233.887527,267.418915 233.958344,269.076691 234.016174,271.218140 
	C234.003189,276.310852 234.003189,280.919830 234.003189,285.928741 
	C227.708755,285.928741 221.936508,285.928741 216.164276,285.928741 
z"/>
<path fill="#F26E34" opacity="1.000000" stroke="none" 
	d="
M222.026337,335.069580 
	C221.822815,337.748291 222.070618,339.449921 225.065582,339.191162 
	C227.505096,338.980438 229.977280,339.148346 232.787689,339.148346 
	C232.787689,335.980377 232.787689,333.215088 232.787689,330.064423 
	C234.843445,330.064423 236.537552,330.064423 238.517929,330.064423 
	C238.517929,337.902710 238.517929,345.619293 238.517929,353.713226 
	C236.874649,353.837128 235.293167,353.956390 233.180771,354.115692 
	C233.180771,350.814545 233.180771,347.753296 233.180771,344.374573 
	C229.301727,344.374573 225.926132,344.374573 222.182861,344.374573 
	C222.182861,347.403931 222.182861,350.332489 222.182861,353.640656 
	C220.137161,353.640656 218.444534,353.640656 216.473526,353.640656 
	C216.473526,345.849884 216.473526,338.111511 216.473526,329.970673 
	C218.088562,329.858337 219.679596,329.747681 221.766129,329.602539 
	C221.862671,331.464691 221.944397,333.040863 222.026337,335.069580 
z"/>
<path fill="#F1682B" opacity="1.000000" stroke="none" 
	d="
M283.207825,347.385620 
	C282.491211,349.451630 282.160126,351.380310 281.748138,353.780334 
	C280.421906,353.849915 278.844666,353.932678 276.899719,354.034698 
	C276.899719,346.006592 276.899719,338.289886 276.899719,330.197601 
	C281.624237,330.197601 286.503265,329.487854 291.007721,330.479401 
	C293.478271,331.023254 296.122223,334.080170 297.256317,336.638550 
	C299.059174,340.705688 296.293640,343.858368 293.016968,346.435181 
	C294.582672,348.834869 296.094482,351.151978 297.650909,353.537445 
	C293.821136,354.796112 291.561890,353.625641 289.435333,350.574463 
	C288.278564,348.914734 285.590637,348.322174 283.207825,347.385620 
M283.691498,342.850830 
	C287.236511,342.741333 292.094696,343.718231 291.786743,338.288574 
	C291.491516,333.083160 286.751465,334.250458 283.196838,334.388153 
	C282.933411,334.398407 282.683197,334.749695 281.900116,335.338440 
	C282.192780,337.550232 282.528473,340.087494 283.691498,342.850830 
z"/>
<path fill="#F26E34" opacity="1.000000" stroke="none" 
	d="
M360.968353,335.938812 
	C361.837646,337.398132 362.657471,339.022278 363.729919,339.211060 
	C366.133911,339.634186 368.663544,339.343536 371.631989,339.343536 
	C371.742371,340.891205 371.836212,342.207092 371.955658,343.881531 
	C368.224396,343.881531 364.944092,343.881531 361.273865,343.881531 
	C361.273865,345.711060 361.273865,347.225006 361.273865,349.179626 
	C365.262146,349.179626 369.186554,349.179626 373.561707,349.179626 
	C373.706848,350.897705 373.819000,352.225250 373.952759,353.808563 
	C367.595917,353.808563 361.667297,353.808563 355.382751,353.808563 
	C355.382751,345.890686 355.382751,338.022675 355.382751,329.908813 
	C361.188904,329.908813 366.955383,329.908813 372.987579,329.908813 
	C374.281433,332.943939 373.678864,334.350708 370.017822,334.383209 
	C367.020142,334.409760 364.028076,335.071838 360.968353,335.938812 
z"/>
<path fill="#F26D32" opacity="1.000000" stroke="none" 
	d="
M258.965515,354.023499 
	C255.509308,354.023499 252.538681,354.023499 249.236298,354.023499 
	C249.236298,345.853424 249.236298,337.984863 249.236298,329.894592 
	C255.114822,329.894592 260.881256,329.894592 266.959503,329.894592 
	C267.033783,331.264984 267.101532,332.514343 267.198486,334.303070 
	C265.130585,334.303070 263.287689,334.023529 261.571686,334.370789 
	C259.196259,334.851471 254.980301,332.331879 254.861282,336.763977 
	C254.735321,341.453857 259.056671,338.972504 261.369659,339.249878 
	C264.187286,339.587738 266.997345,339.209961 265.252014,343.972290 
	C261.947571,343.972290 258.526245,343.972290 254.876678,343.972290 
	C254.876678,345.872894 254.876678,347.275085 254.876678,348.750275 
	C259.236053,349.268585 263.396790,349.723267 267.522552,350.393188 
	C267.696259,350.421387 267.544769,352.452209 267.544769,354.023499 
	C264.699005,354.023499 262.075073,354.023499 258.965515,354.023499 
z"/>
<path fill="#F26B30" opacity="1.000000" stroke="none" 
	d="
M181.811279,350.250122 
	C182.314529,351.526855 182.662537,352.441650 183.087479,353.558685 
	C179.759079,354.416931 177.368134,354.580139 175.903793,350.668091 
	C174.826843,347.791016 165.191040,348.352325 163.199814,350.804962 
	C161.847244,352.470947 159.752869,353.534698 157.990234,354.867767 
	C157.481125,354.386475 156.972015,353.905212 156.462906,353.423920 
	C159.775467,345.914886 162.913559,338.321198 166.495255,330.942810 
	C167.747574,328.362976 172.321808,329.204742 173.687210,332.134521 
	C176.427078,338.013458 179.008957,343.966034 181.811279,350.250122 
M166.629395,344.335602 
	C168.671844,344.335602 170.714279,344.335602 173.459427,344.335602 
	C172.148148,341.279572 171.062332,338.748962 169.609421,335.362823 
	C168.267044,338.796692 167.318405,341.223328 166.629395,344.335602 
z"/>
<path fill="#F26D32" opacity="1.000000" stroke="none" 
	d="
M141.037033,349.429016 
	C143.455612,348.801483 145.458893,348.146942 147.936172,347.337494 
	C148.604919,347.957764 149.652313,348.929169 151.739975,350.865448 
	C147.984695,352.260834 145.128403,353.896881 142.100800,354.326996 
	C135.892075,355.208923 130.199677,351.420959 128.412918,345.905975 
	C126.590385,340.280548 128.843979,334.114502 133.797699,331.172699 
	C139.479172,327.798706 145.973099,328.736908 150.455261,333.644836 
	C149.147079,335.822601 147.968903,336.900360 145.018799,335.334137 
	C140.343613,332.852020 135.366791,334.969604 134.067215,339.337189 
	C132.564194,344.388489 134.871902,347.932068 141.037033,349.429016 
z"/>
<path fill="#F26B30" opacity="1.000000" stroke="none" 
	d="
M207.225433,329.731781 
	C208.139877,331.105225 208.633881,332.443787 209.238647,334.082458 
	C206.135773,334.301697 203.845322,334.463562 201.108429,334.656952 
	C201.108429,341.003754 201.108429,347.239716 201.108429,353.739685 
	C199.075287,353.739685 197.494720,353.739685 195.345795,353.739685 
	C195.345795,347.509552 195.345795,341.284210 195.345795,336.016998 
	C193.074753,332.672852 186.262009,337.360443 187.978043,329.696869 
	C194.260529,329.696869 200.532761,329.696869 207.225433,329.731781 
z"/>
<path fill="#EED8CE" opacity="1.000000" stroke="none" 
	d="
M179.052994,301.235718 
	C182.903946,301.450714 186.737167,302.112335 190.595337,302.557800 
	C192.138367,302.735931 193.736389,302.437714 195.649200,302.165588 
	C195.011505,305.008362 193.909897,308.008698 193.086853,311.083618 
	C191.983765,315.204803 188.339386,317.016937 184.082947,315.716797 
	C181.538483,314.939575 178.824509,314.717316 176.514420,314.304199 
	C177.435181,309.680634 178.240219,305.638123 179.052994,301.235718 
z"/>
<path fill="#F2753E" opacity="1.000000" stroke="none" 
	d="
M162.492111,379.283630 
	C160.994766,381.703217 159.729599,383.814056 158.000549,386.698883 
	C155.699890,383.306396 153.763931,380.451721 151.405518,376.974060 
	C151.155151,381.221588 150.955460,384.609589 150.755753,387.997620 
	C150.277847,387.983032 149.799942,387.968414 149.322037,387.953827 
	C149.322037,382.412689 149.322037,376.871521 149.322037,371.330353 
	C149.637955,371.062042 149.953873,370.793701 150.269791,370.525360 
	C152.700363,374.320892 155.130951,378.116425 157.805206,382.292480 
	C160.440567,378.200531 162.872437,374.424561 165.304306,370.648560 
	C165.687164,370.786957 166.070023,370.925354 166.452881,371.063751 
	C166.452881,376.628448 166.452881,382.193176 166.452881,387.757874 
	C166.121887,387.867126 165.790878,387.976379 165.459885,388.085632 
	C165.080185,386.845428 164.592178,385.626282 164.345840,384.360138 
	C163.963974,382.397278 163.746933,380.402344 163.460007,378.421021 
	C163.325821,378.481995 163.175476,378.521973 163.061737,378.609497 
	C162.932236,378.709167 162.835342,378.851257 162.492111,379.283630 
z"/>
<path fill="#EED8CE" opacity="1.000000" stroke="none" 
	d="
M232.957382,251.941223 
	C232.999893,255.557022 233.042389,259.172821 232.596832,263.246704 
	C227.926285,263.896973 223.743805,264.089233 218.860275,264.313690 
	C218.860275,260.475433 218.860275,257.257721 218.939026,253.614288 
	C223.664307,252.772766 228.310837,252.356995 232.957382,251.941223 
z"/>
<path fill="#F26E34" opacity="1.000000" stroke="none" 
	d="
M231.301941,384.911194 
	C231.006332,386.237335 230.733795,387.170746 230.461243,388.104156 
	C230.079681,388.048553 229.698120,387.992920 229.316559,387.937317 
	C229.316559,382.321533 229.316559,376.705780 229.316559,371.089996 
	C229.760361,371.030365 230.204163,370.970734 230.647964,370.911102 
	C230.984344,373.432587 231.320724,375.954041 231.784515,379.430603 
	C235.286331,376.160400 238.415771,373.237915 241.545197,370.315430 
	C241.904572,370.732208 242.263947,371.148956 242.623322,371.565735 
	C240.537994,373.852692 238.452652,376.139648 236.205719,378.603851 
	C238.508636,381.548889 240.746902,384.411224 242.985168,387.273560 
	C242.677246,387.638489 242.369308,388.003418 242.061371,388.368347 
	C239.543304,386.027191 237.025223,383.686035 234.010849,380.883453 
	C233.133926,382.070251 232.229462,383.294373 231.301941,384.911194 
z"/>
<path fill="#F37842" opacity="1.000000" stroke="none" 
	d="
M212.385101,371.056702 
	C218.933762,373.966705 219.433395,376.814056 214.829254,383.008728 
	C215.744247,384.484222 216.678009,385.989960 217.611755,387.495667 
	C217.468719,387.699646 217.325668,387.903625 217.182617,388.107605 
	C214.201233,386.132690 211.219849,384.157806 207.772430,381.874176 
	C206.807571,384.869720 206.278473,386.512329 205.749390,388.154938 
	C205.329117,388.087311 204.908829,388.019653 204.488556,387.951996 
	C204.488556,382.523132 204.488556,377.094299 204.488556,371.010742 
	C206.803528,371.010742 209.381577,371.010742 212.385101,371.056702 
M206.655853,376.545746 
	C206.708572,378.633881 206.173828,381.477997 209.630127,380.694977 
	C211.572113,380.255035 213.249557,378.647491 215.046173,377.565979 
	C214.137939,376.200165 213.476730,374.024536 212.264633,373.654816 
	C210.357880,373.073120 207.156357,371.313080 206.655853,376.545746 
z"/>
<path fill="#F26B30" opacity="1.000000" stroke="none" 
	d="
M312.844818,375.335938 
	C312.942474,373.642670 313.040039,372.402405 313.137604,371.162170 
	C313.530548,370.964874 313.923492,370.767578 314.316467,370.570282 
	C317.584717,374.529144 320.852966,378.488007 325.067627,383.593292 
	C325.067627,378.589996 325.067627,374.838379 325.067627,371.086731 
	C325.599701,371.089813 326.131744,371.092896 326.663818,371.095978 
	C326.663818,376.626190 326.663818,382.156433 326.663818,389.024414 
	C322.806610,384.605316 319.472229,380.785217 315.092041,375.766968 
	C315.092041,380.700684 315.092041,384.285431 315.092041,387.870178 
	C314.342926,387.893311 313.593811,387.916443 312.844696,387.939575 
	C312.844696,383.889374 312.844696,379.839203 312.844818,375.335938 
z"/>
<path fill="#F37842" opacity="1.000000" stroke="none" 
	d="
M352.147217,374.558044 
	C348.581482,372.650604 345.035889,372.160034 342.736694,375.183746 
	C341.410004,376.928528 340.823761,380.538086 341.763062,382.338654 
	C342.705841,384.145935 345.880188,385.461487 348.214355,385.712891 
	C351.707520,386.089111 350.919098,382.838196 351.239014,380.665314 
	C351.316864,380.136627 351.893616,379.681366 352.314331,379.089081 
	C355.364838,384.208923 354.118103,387.346558 349.005676,388.069427 
	C344.844269,388.657806 340.813629,387.689362 339.378906,383.691376 
	C338.406006,380.980103 338.715790,377.124481 339.944519,374.472137 
	C341.663422,370.761688 345.784088,370.235046 349.531067,371.163422 
	C350.738678,371.462616 351.536743,373.414856 352.147217,374.558044 
z"/>
<path fill="#ED6326" opacity="1.000000" stroke="none" 
	d="
M306.708130,338.038605 
	C306.708008,335.231598 306.708008,332.917511 306.708008,330.105255 
	C308.503815,330.019775 310.037323,329.946777 311.873413,329.859344 
	C311.873413,337.989838 311.873413,345.719513 311.873413,353.720367 
	C310.317657,353.720367 308.896027,353.720367 306.708282,353.720367 
	C306.708282,348.693451 306.708282,343.612518 306.708130,338.038605 
z"/>
<path fill="#F2753E" opacity="1.000000" stroke="none" 
	d="
M259.885071,388.050171 
	C257.485565,388.050171 255.544266,388.050171 253.358353,388.050171 
	C253.358353,382.260681 253.358353,377.012054 253.358353,371.395264 
	C257.302490,371.395264 261.212799,371.395264 265.123077,371.395264 
	C265.165558,371.822662 265.208038,372.250092 265.250519,372.677490 
	C262.355499,372.928711 259.460510,373.179901 256.250885,373.458435 
	C256.250885,374.864044 256.250885,376.234558 256.250885,377.899719 
	C258.944489,378.107483 261.556641,378.308960 264.168793,378.510437 
	C264.143890,379.044739 264.118988,379.579041 264.094116,380.113312 
	C261.597931,380.376343 259.101776,380.639374 256.241486,380.940796 
	C256.123505,382.315613 256.001495,383.737793 255.835770,385.669006 
	C259.273407,385.824341 262.433685,385.967163 265.593964,386.109955 
	C265.611725,386.607056 265.629517,387.104126 265.647308,387.601196 
	C263.879303,387.750854 262.111298,387.900513 259.885071,388.050171 
z"/>
<path fill="#F2753E" opacity="1.000000" stroke="none" 
	d="
M177.005890,387.035461 
	C178.995773,382.273743 180.883377,377.865204 182.976974,373.556763 
	C183.474289,372.533356 184.661652,371.845306 185.531601,371.002991 
	C186.275299,371.787292 187.278519,372.448517 187.718842,373.376709 
	C189.910202,377.996216 191.953461,382.685944 194.257217,387.814880 
	C193.126999,387.717316 191.893692,387.864380 191.770660,387.561066 
	C190.535812,384.517181 188.407257,383.751099 185.199707,383.800385 
	C182.176682,383.846832 180.124954,384.476440 179.049820,387.446533 
	C178.972153,387.661194 177.697235,387.442444 177.005890,387.035461 
M184.531525,375.424103 
	C183.678024,377.416473 182.824539,379.408844 181.849136,381.685791 
	C184.423660,381.685791 186.192505,381.685791 189.188461,381.685791 
	C187.499420,378.967438 186.225739,376.917542 184.531525,375.424103 
z"/>
<path fill="#F37842" opacity="1.000000" stroke="none" 
	d="
M274.959473,371.182129 
	C279.666656,371.026489 283.987091,371.026489 288.307495,371.026489 
	C288.365173,371.523071 288.422852,372.019653 288.480530,372.516266 
	C286.762238,372.934906 285.043976,373.353546 283.096527,373.828064 
	C282.843567,378.541229 282.589081,383.282867 282.334595,388.024536 
	C281.681671,387.983276 281.028717,387.942017 280.375763,387.900757 
	C280.375763,383.264496 280.375763,378.628204 280.375763,374.764099 
	C277.908264,373.307220 276.240479,372.322510 274.959473,371.182129 
z"/>
<path fill="#FDEEE7" opacity="1.000000" stroke="none" 
	d="
M192.012482,215.557053 
	C191.141312,213.545349 190.240707,211.706085 189.446732,210.084579 
	C189.881287,208.121033 190.315475,206.159210 190.988052,203.120209 
	C192.219086,203.736359 194.617950,204.196625 194.866669,205.193405 
	C195.796799,208.921082 195.854507,212.787262 192.365814,215.948456 
	C192.036819,216.075195 191.983047,215.729492 192.012482,215.557053 
z"/>
<path fill="#655B57" opacity="1.000000" stroke="none" 
	d="
M218.860275,254.040024 
	C218.860275,257.257721 218.860275,260.475433 218.860275,264.313690 
	C223.743805,264.089233 227.926285,263.896973 232.581085,263.687408 
	C233.357819,263.904449 233.662216,264.138855 234.012390,264.660187 
	C228.677307,265.298096 223.296432,265.649048 217.456100,265.933228 
	C217.177399,262.235565 217.358185,258.604645 217.743408,254.528625 
	C217.947845,254.083527 218.402328,254.025574 218.402328,254.025574 
	C218.402328,254.025574 218.860275,254.040024 218.860275,254.040024 
z"/>
<path fill="#F37842" opacity="1.000000" stroke="none" 
	d="
M299.725342,387.805756 
	C298.856476,385.729584 298.160553,383.522247 298.013550,381.278931 
	C297.792572,377.906738 297.956024,374.509338 299.100952,371.078430 
	C300.932495,376.515259 301.059448,382.043152 299.725342,387.805756 
z"/>
<path fill="#7F7976" opacity="1.000000" stroke="none" 
	d="
M218.939026,253.614288 
	C218.860275,254.040024 218.402328,254.025574 218.402328,254.025574 
	C218.402328,254.025574 217.947845,254.083527 217.718842,254.088593 
	C217.735535,252.805756 217.997833,250.392212 218.224518,250.395554 
	C223.107773,250.467499 227.987091,250.809586 232.912262,251.520325 
	C228.310837,252.356995 223.664307,252.772766 218.939026,253.614288 
z"/>
<path fill="#040303" opacity="1.000000" stroke="none" 
	d="
M216.224640,286.347717 
	C221.936508,285.928741 227.708755,285.928741 234.003189,285.928741 
	C234.003189,280.919830 234.003189,276.310852 234.252563,271.253723 
	C234.501938,270.805573 234.916626,271.041992 234.916626,271.041992 
	C234.916626,276.213776 234.916626,281.385529 234.916626,287.017059 
	C232.611603,287.017059 230.700684,287.017059 228.331909,287.085846 
	C226.794571,287.111969 225.715088,287.069305 224.232727,287.096313 
	C221.314911,287.032898 218.799957,286.899811 216.224640,286.347717 
z"/>
<path fill="#655B57" opacity="1.000000" stroke="none" 
	d="
M235.002029,270.631866 
	C234.916626,271.041992 234.501938,270.805573 234.265549,270.770020 
	C233.958344,269.076691 233.887527,267.418915 233.934570,265.353577 
	C234.397415,266.704559 234.742416,268.463165 235.002029,270.631866 
z"/>
<path fill="#FEF6F2" opacity="1.000000" stroke="none" 
	d="
M234.816010,174.529266 
	C231.694672,171.678009 228.718750,168.490463 225.196762,164.718018 
	C227.204422,164.101105 228.338638,163.752579 229.685822,163.338623 
	C229.205566,161.195160 228.720291,159.029327 228.235016,156.863495 
	C228.515198,156.409302 228.795380,155.955109 229.075562,155.500900 
	C231.214371,156.479752 234.907715,157.144089 235.182068,158.500137 
	C235.839096,161.747650 238.402313,166.052551 233.363708,168.782471 
	C233.849060,170.426056 234.405243,172.309525 234.816010,174.529266 
z"/>
<path fill="#FEF6F2" opacity="1.000000" stroke="none" 
	d="
M192.981201,184.776672 
	C190.613785,181.826950 188.444672,179.141571 186.016403,176.135330 
	C187.470184,175.487808 188.586792,174.990463 189.903503,174.403992 
	C189.516418,172.447998 189.118408,170.436829 188.451721,167.067978 
	C191.487091,168.018448 195.398865,168.664749 195.404480,169.343414 
	C195.431519,172.604172 198.247864,175.894226 195.075378,179.406601 
	C193.898438,180.709610 194.885147,183.966904 193.977066,187.382492 
	C193.711212,186.602005 193.445374,185.821503 192.981201,184.776672 
z"/>
<path fill="#FEF2ED" opacity="1.000000" stroke="none" 
	d="
M271.507629,145.520096 
	C271.043488,144.518967 270.805145,143.795670 270.566833,143.072357 
	C274.909607,141.853287 272.546326,138.793884 272.062683,135.281601 
	C274.384552,135.460464 277.739197,135.095612 278.013062,135.849640 
	C279.104340,138.854355 280.715393,144.054932 279.438904,145.077240 
	C275.942657,147.877274 278.750488,150.347321 278.501434,154.042816 
	C275.829651,150.787949 273.781555,148.292923 271.507629,145.520096 
z"/>
<path fill="#FEF2ED" opacity="1.000000" stroke="none" 
	d="
M251.005249,136.899582 
	C250.305939,140.287476 249.586884,143.244995 248.785721,146.540207 
	C246.716415,144.087997 244.216492,141.125488 241.382874,137.767563 
	C242.719955,136.939499 243.706863,136.328308 244.810928,135.644562 
	C244.493607,133.847305 244.163879,131.979767 243.837372,130.130508 
	C250.139206,128.730576 250.361420,128.942627 251.005249,136.899582 
z"/>
<path fill="#FEF6F2" opacity="1.000000" stroke="none" 
	d="
M211.185852,148.743866 
	C211.423706,147.352280 211.881973,146.243011 212.340240,145.133743 
	C212.736710,145.272919 213.133163,145.412109 213.529617,145.551300 
	C213.081116,143.536575 212.632614,141.521851 212.120331,139.220551 
	C214.364075,139.220551 216.297440,139.220551 218.912216,139.220551 
	C217.920319,143.245209 222.680344,147.589310 217.096191,150.913940 
	C217.609924,152.778778 218.124924,154.643860 218.639923,156.508942 
	C218.384491,156.664673 218.129074,156.820419 217.873642,156.976166 
	C215.717850,154.326157 213.562073,151.676163 211.185852,148.743866 
z"/>
<path fill="#FEF2ED" opacity="1.000000" stroke="none" 
	d="
M252.161011,167.818512 
	C252.390091,171.387833 254.693939,174.767456 251.114105,177.695053 
	C250.529724,178.172958 251.632782,180.714279 251.225891,182.862381 
	C248.953171,180.099365 246.680450,177.336334 245.251633,175.599274 
	C246.045471,172.307968 246.590744,170.047211 247.327225,166.993683 
	C248.296494,167.085419 250.131149,167.259079 252.161011,167.818512 
z"/>
<path fill="#FEF2ED" opacity="1.000000" stroke="none" 
	d="
M260.384644,170.915482 
	C261.084747,168.994461 261.439362,167.175140 261.905670,164.782745 
	C266.060608,162.990784 267.668732,165.521454 267.465363,169.689926 
	C267.320404,172.661011 266.333618,175.591019 264.646057,179.310898 
	C263.110413,176.546310 261.574768,173.781738 260.384644,170.915482 
z"/>
<path fill="#FEF2ED" opacity="1.000000" stroke="none" 
	d="
M278.337616,162.573914 
	C279.375458,161.521667 280.511200,160.392883 281.724365,160.302414 
	C282.466217,160.247101 284.073730,161.861435 284.000092,162.596497 
	C283.736176,165.232239 287.260590,168.713654 282.463806,170.598877 
	C282.171173,170.713867 282.818817,173.221344 282.261505,175.039413 
	C280.293457,172.710526 278.325378,170.381622 276.917633,168.715729 
	C277.567993,166.291199 278.018066,164.613297 278.337616,162.573914 
z"/>
<path fill="#FEF6F2" opacity="1.000000" stroke="none" 
	d="
M226.876190,138.834961 
	C227.375366,137.046448 227.494476,135.360001 227.646057,133.214005 
	C228.913101,133.146255 230.492798,133.061783 233.184402,132.917847 
	C232.795090,138.072067 232.439468,142.780121 232.083862,147.488174 
	C231.806641,147.684906 231.529419,147.881622 231.252197,148.078339 
	C229.666855,145.031235 228.081512,141.984131 226.876190,138.834961 
z"/>
<path fill="#FEF2ED" opacity="1.000000" stroke="none" 
	d="
M223.356995,170.729584 
	C223.140320,174.587021 222.835526,178.042877 222.451477,182.397079 
	C220.263504,179.737427 218.402390,177.475098 217.337814,176.181030 
	C217.897614,172.959915 218.256210,170.896530 218.817474,167.666946 
	C220.359802,168.588943 221.814316,169.458466 223.356995,170.729584 
z"/>
<path fill="#FDEEE7" opacity="1.000000" stroke="none" 
	d="
M215.512253,191.100525 
	C219.885483,189.959610 222.217163,192.870972 220.915390,197.339264 
	C220.355804,199.260025 219.792160,201.179611 219.198990,203.206970 
	C217.589920,201.275192 215.814407,199.143585 214.743866,197.858337 
	C215.020035,195.084167 215.201050,193.265945 215.512253,191.100525 
z"/>
<path fill="#FEF2ED" opacity="1.000000" stroke="none" 
	d="
M209.526199,176.478500 
	C205.310226,173.592438 205.553696,169.719101 206.829300,165.631073 
	C210.623215,165.199585 212.149536,167.377716 210.989227,171.901505 
	C210.601532,173.412994 210.262039,174.936844 209.526199,176.478500 
z"/>
<path fill="#FEF2ED" opacity="1.000000" stroke="none" 
	d="
M204.738922,194.819916 
	C204.421677,198.041473 204.000336,200.883881 203.377365,205.086609 
	C201.266708,202.357269 200.170120,200.939224 199.408173,199.953934 
	C199.966751,197.695618 200.418198,195.870422 201.028824,193.401688 
	C202.073837,193.702805 203.354324,194.071793 204.738922,194.819916 
z"/>
<path fill="#FDEEE7" opacity="1.000000" stroke="none" 
	d="
M243.423492,158.895584 
	C239.160172,156.341614 241.863419,152.835587 241.603439,149.600647 
	C246.732849,149.041718 245.560135,152.795151 245.621109,155.402069 
	C245.651428,156.697739 244.961838,158.011505 244.572723,159.309540 
	C244.561584,159.346725 244.255966,159.326935 244.103058,159.281662 
	C243.948776,159.235947 243.813721,159.125305 243.423492,158.895584 
z"/>
<path fill="#FDEEE7" opacity="1.000000" stroke="none" 
	d="
M273.872253,191.260498 
	C269.500122,189.135086 270.458130,185.480835 271.480591,181.811737 
	C274.919586,181.690567 276.711456,184.637650 275.222412,187.932693 
	C274.779114,188.913605 274.411835,189.928879 273.872253,191.260498 
z"/>
<path fill="#FEF2ED" opacity="1.000000" stroke="none" 
	d="
M231.902100,190.439255 
	C231.384232,192.007843 231.061844,193.199799 230.612183,194.862396 
	C229.146835,193.083084 227.745453,191.381454 226.426682,189.780151 
	C227.100998,187.908157 227.717682,186.196198 228.480240,184.079208 
	C233.803513,183.077225 231.565521,187.562836 231.902100,190.439255 
z"/>
<path fill="#FEF2ED" opacity="1.000000" stroke="none" 
	d="
M211.719421,209.154999 
	C212.195343,208.144714 212.863495,206.892197 213.314087,206.966095 
	C214.217148,207.114243 215.754166,208.055511 215.709503,208.550232 
	C215.462158,211.290924 214.818008,213.995819 214.206207,217.266510 
	C211.200943,214.555191 209.630356,212.455261 211.719421,209.154999 
z"/>
<path fill="#FDEEE7" opacity="1.000000" stroke="none" 
	d="
M201.911438,147.760910 
	C204.691254,146.092484 206.179611,146.992844 205.988495,149.943893 
	C205.841507,152.213318 205.254486,154.454224 204.842133,156.828873 
	C200.934616,154.640701 200.129898,151.801834 201.911438,147.760910 
z"/>
<path fill="#FDEEE7" opacity="1.000000" stroke="none" 
	d="
M223.884705,228.250061 
	C218.426483,226.670761 221.006088,222.785950 221.251358,218.737900 
	C227.357208,220.790192 224.035706,224.804108 223.884705,228.250061 
z"/>
<path fill="#FDEEE7" opacity="1.000000" stroke="none" 
	d="
M288.093872,181.460999 
	C293.606812,183.814499 289.491577,187.493393 289.781586,190.778641 
	C285.322449,188.383987 285.884460,185.093674 288.093872,181.460999 
z"/>
<path fill="#FDEEE7" opacity="1.000000" stroke="none" 
	d="
M258.043091,209.948395 
	C253.233505,208.335312 255.315308,204.665298 255.563385,200.674484 
	C261.048218,202.565567 258.278412,206.301010 258.026794,209.595688 
	C258.003693,209.989746 258.043091,209.948395 258.043091,209.948395 
z"/>
<path fill="#FEF6F2" opacity="1.000000" stroke="none" 
	d="
M195.686615,154.641830 
	C195.674911,157.564606 195.455460,160.135818 195.228485,162.795212 
	C190.219849,161.243668 192.568619,157.759460 192.396851,155.122253 
	C192.383194,154.912735 194.403687,154.570724 195.686615,154.641830 
z"/>
<path fill="#FEF2ED" opacity="1.000000" stroke="none" 
	d="
M280.129303,201.677673 
	C279.861389,202.525360 279.627899,202.996460 279.394409,203.467560 
	C278.479370,201.882828 276.961273,200.338852 276.850464,198.699753 
	C276.769714,197.504913 278.544678,196.184616 279.492371,194.920258 
	C279.716156,197.047195 279.939911,199.174118 280.129303,201.677673 
z"/>
<path fill="#FDEEE7" opacity="1.000000" stroke="none" 
	d="
M257.981201,210.007294 
	C258.096497,210.082092 258.234314,210.139328 258.372131,210.196564 
	C258.260559,210.230530 258.148956,210.264496 258.040222,210.123444 
	C258.043091,209.948395 258.003693,209.989746 257.981201,210.007294 
z"/>
<path fill="#FDEEE7" opacity="1.000000" stroke="none" 
	d="
M283.277832,342.737793 
	C282.528473,340.087494 282.192780,337.550232 281.900116,335.338440 
	C282.683197,334.749695 282.933411,334.398407 283.196838,334.388153 
	C286.751465,334.250458 291.491516,333.083160 291.786743,338.288574 
	C292.094696,343.718231 287.236511,342.741333 283.277832,342.737793 
z"/>
<path fill="#FDEEE7" opacity="1.000000" stroke="none" 
	d="
M166.499573,343.992798 
	C167.318405,341.223328 168.267044,338.796692 169.609421,335.362823 
	C171.062332,338.748962 172.148148,341.279572 173.459427,344.335602 
	C170.714279,344.335602 168.671844,344.335602 166.499573,343.992798 
z"/>
<path fill="#FEF6F2" opacity="1.000000" stroke="none" 
	d="
M206.659882,376.098724 
	C207.156357,371.313080 210.357880,373.073120 212.264633,373.654816 
	C213.476730,374.024536 214.137939,376.200165 215.046173,377.565979 
	C213.249557,378.647491 211.572113,380.255035 209.630127,380.694977 
	C206.173828,381.477997 206.708572,378.633881 206.659882,376.098724 
z"/>
<path fill="#FDEEE7" opacity="1.000000" stroke="none" 
	d="
M184.741791,375.145874 
	C186.225739,376.917542 187.499420,378.967438 189.188461,381.685791 
	C186.192505,381.685791 184.423660,381.685791 181.849136,381.685791 
	C182.824539,379.408844 183.678024,377.416473 184.741791,375.145874 
z"/>
</svg>